<mxfile host="app.diagrams.net" agent="Mozilla/5.0 (Windows NT 10.0; Win64; x64) AppleWebKit/537.36 (KHTML, like Gecko) Chrome/134.0.0.0 Safari/537.36" version="26.2.4">
  <diagram name="페이지-1" id="2qgpu2m9PORvq-Fd81mE">
    <mxGraphModel dx="616" dy="742" grid="1" gridSize="10" guides="1" tooltips="1" connect="1" arrows="1" fold="1" page="1" pageScale="1" pageWidth="827" pageHeight="1169" math="0" shadow="0">
      <root>
        <mxCell id="0" />
        <mxCell id="1" parent="0" />
        <mxCell id="HTvJXkemS3TAoMlAXdJA-1" value="Create Profile" style="ellipse;whiteSpace=wrap;html=1;" vertex="1" parent="1">
          <mxGeometry x="366.25" y="30" width="80" height="40" as="geometry" />
        </mxCell>
        <mxCell id="HTvJXkemS3TAoMlAXdJA-2" value="Modify Profile" style="ellipse;whiteSpace=wrap;html=1;" vertex="1" parent="1">
          <mxGeometry x="366.25" y="120" width="80" height="40" as="geometry" />
        </mxCell>
        <mxCell id="HTvJXkemS3TAoMlAXdJA-11" value="Cancel&amp;nbsp;&lt;div&gt;Reservation&lt;/div&gt;" style="ellipse;whiteSpace=wrap;html=1;" vertex="1" parent="1">
          <mxGeometry x="456.25" y="320" width="80" height="40" as="geometry" />
        </mxCell>
        <mxCell id="HTvJXkemS3TAoMlAXdJA-12" value="Retrieve Raservation" style="ellipse;whiteSpace=wrap;html=1;" vertex="1" parent="1">
          <mxGeometry x="276.25" y="320" width="80" height="40" as="geometry" />
        </mxCell>
        <mxCell id="HTvJXkemS3TAoMlAXdJA-13" value="Modify&lt;div&gt;Reservation&lt;/div&gt;" style="ellipse;whiteSpace=wrap;html=1;" vertex="1" parent="1">
          <mxGeometry x="366.25" y="320" width="80" height="40" as="geometry" />
        </mxCell>
        <mxCell id="HTvJXkemS3TAoMlAXdJA-19" value="Manage&lt;div&gt;Reservation&lt;/div&gt;" style="ellipse;whiteSpace=wrap;html=1;" vertex="1" parent="1">
          <mxGeometry x="366.25" y="240" width="80" height="40" as="geometry" />
        </mxCell>
        <mxCell id="HTvJXkemS3TAoMlAXdJA-20" value="Make a Payment" style="ellipse;whiteSpace=wrap;html=1;" vertex="1" parent="1">
          <mxGeometry x="464" y="500" width="80" height="40" as="geometry" />
        </mxCell>
        <mxCell id="HTvJXkemS3TAoMlAXdJA-21" value="Validate&amp;nbsp;&lt;div&gt;Driver License&lt;/div&gt;" style="ellipse;whiteSpace=wrap;html=1;" vertex="1" parent="1">
          <mxGeometry x="284" y="500" width="80" height="40" as="geometry" />
        </mxCell>
        <mxCell id="HTvJXkemS3TAoMlAXdJA-22" value="Assign Car" style="ellipse;whiteSpace=wrap;html=1;" vertex="1" parent="1">
          <mxGeometry x="374" y="500" width="80" height="40" as="geometry" />
        </mxCell>
        <mxCell id="HTvJXkemS3TAoMlAXdJA-23" value="Check Out" style="ellipse;whiteSpace=wrap;html=1;" vertex="1" parent="1">
          <mxGeometry x="374" y="420" width="80" height="40" as="geometry" />
        </mxCell>
        <mxCell id="HTvJXkemS3TAoMlAXdJA-25" value="Calculate&lt;div&gt;Additional Fees&lt;/div&gt;" style="ellipse;whiteSpace=wrap;html=1;" vertex="1" parent="1">
          <mxGeometry x="317.5" y="670" width="80" height="40" as="geometry" />
        </mxCell>
        <mxCell id="HTvJXkemS3TAoMlAXdJA-26" value="Process Late Return" style="ellipse;whiteSpace=wrap;html=1;" vertex="1" parent="1">
          <mxGeometry x="415" y="670" width="80" height="40" as="geometry" />
        </mxCell>
        <mxCell id="HTvJXkemS3TAoMlAXdJA-27" value="Return Car" style="ellipse;whiteSpace=wrap;html=1;" vertex="1" parent="1">
          <mxGeometry x="366.25" y="600" width="80" height="40" as="geometry" />
        </mxCell>
        <mxCell id="HTvJXkemS3TAoMlAXdJA-33" value="Fast-track Checkout" style="ellipse;whiteSpace=wrap;html=1;" vertex="1" parent="1">
          <mxGeometry x="430" y="850" width="80" height="40" as="geometry" />
        </mxCell>
        <mxCell id="HTvJXkemS3TAoMlAXdJA-34" value="Evaluate Rental History" style="ellipse;whiteSpace=wrap;html=1;" vertex="1" parent="1">
          <mxGeometry x="240" y="850" width="80" height="40" as="geometry" />
        </mxCell>
        <mxCell id="HTvJXkemS3TAoMlAXdJA-35" value="Grant VIP Membership" style="ellipse;whiteSpace=wrap;html=1;" vertex="1" parent="1">
          <mxGeometry x="330" y="850" width="80" height="40" as="geometry" />
        </mxCell>
        <mxCell id="HTvJXkemS3TAoMlAXdJA-36" value="Become Member" style="ellipse;whiteSpace=wrap;html=1;" vertex="1" parent="1">
          <mxGeometry x="373.75" y="770" width="80" height="40" as="geometry" />
        </mxCell>
        <mxCell id="HTvJXkemS3TAoMlAXdJA-41" value="Apply VIP Discount" style="ellipse;whiteSpace=wrap;html=1;" vertex="1" parent="1">
          <mxGeometry x="520" y="850" width="80" height="40" as="geometry" />
        </mxCell>
        <mxCell id="HTvJXkemS3TAoMlAXdJA-43" value="Member&amp;nbsp;&lt;div&gt;&lt;br&gt;&lt;/div&gt;" style="shape=umlActor;verticalLabelPosition=bottom;verticalAlign=top;html=1;" vertex="1" parent="1">
          <mxGeometry x="50" y="280" width="30" height="60" as="geometry" />
        </mxCell>
        <mxCell id="HTvJXkemS3TAoMlAXdJA-44" value="Customer" style="shape=umlActor;verticalLabelPosition=bottom;verticalAlign=top;html=1;" vertex="1" parent="1">
          <mxGeometry x="50" y="450" width="30" height="60" as="geometry" />
        </mxCell>
        <mxCell id="HTvJXkemS3TAoMlAXdJA-45" value="Rental Center Staff" style="shape=umlActor;verticalLabelPosition=bottom;verticalAlign=top;html=1;" vertex="1" parent="1">
          <mxGeometry x="734" y="595" width="30" height="60" as="geometry" />
        </mxCell>
        <mxCell id="HTvJXkemS3TAoMlAXdJA-48" value="" style="endArrow=classic;html=1;rounded=0;entryX=0.5;entryY=0;entryDx=0;entryDy=0;entryPerimeter=0;" edge="1" parent="1" source="HTvJXkemS3TAoMlAXdJA-43" target="HTvJXkemS3TAoMlAXdJA-44">
          <mxGeometry width="50" height="50" relative="1" as="geometry">
            <mxPoint x="52.5" y="355" as="sourcePoint" />
            <mxPoint x="220" y="310" as="targetPoint" />
          </mxGeometry>
        </mxCell>
        <mxCell id="HTvJXkemS3TAoMlAXdJA-51" value="" style="endArrow=classic;html=1;rounded=0;exitX=1;exitY=0.3333333333333333;exitDx=0;exitDy=0;exitPerimeter=0;entryX=0;entryY=0.5;entryDx=0;entryDy=0;" edge="1" parent="1" source="HTvJXkemS3TAoMlAXdJA-44" target="HTvJXkemS3TAoMlAXdJA-1">
          <mxGeometry width="50" height="50" relative="1" as="geometry">
            <mxPoint x="100" y="480" as="sourcePoint" />
            <mxPoint x="150" y="430" as="targetPoint" />
          </mxGeometry>
        </mxCell>
        <mxCell id="HTvJXkemS3TAoMlAXdJA-52" value="" style="endArrow=classic;html=1;rounded=0;exitX=1;exitY=0.3333333333333333;exitDx=0;exitDy=0;exitPerimeter=0;entryX=0;entryY=0.5;entryDx=0;entryDy=0;" edge="1" parent="1" source="HTvJXkemS3TAoMlAXdJA-44" target="HTvJXkemS3TAoMlAXdJA-2">
          <mxGeometry width="50" height="50" relative="1" as="geometry">
            <mxPoint x="90" y="480" as="sourcePoint" />
            <mxPoint x="376" y="60" as="targetPoint" />
          </mxGeometry>
        </mxCell>
        <mxCell id="HTvJXkemS3TAoMlAXdJA-53" value="" style="endArrow=classic;html=1;rounded=0;exitX=0.5;exitY=0.5;exitDx=0;exitDy=0;exitPerimeter=0;entryX=0;entryY=0.5;entryDx=0;entryDy=0;" edge="1" parent="1" source="HTvJXkemS3TAoMlAXdJA-44" target="HTvJXkemS3TAoMlAXdJA-19">
          <mxGeometry width="50" height="50" relative="1" as="geometry">
            <mxPoint x="90" y="480" as="sourcePoint" />
            <mxPoint x="376" y="150" as="targetPoint" />
          </mxGeometry>
        </mxCell>
        <mxCell id="HTvJXkemS3TAoMlAXdJA-54" value="" style="endArrow=classic;html=1;rounded=0;exitX=0.5;exitY=0.5;exitDx=0;exitDy=0;exitPerimeter=0;entryX=0;entryY=0.5;entryDx=0;entryDy=0;" edge="1" parent="1" source="HTvJXkemS3TAoMlAXdJA-44" target="HTvJXkemS3TAoMlAXdJA-23">
          <mxGeometry width="50" height="50" relative="1" as="geometry">
            <mxPoint x="75" y="490" as="sourcePoint" />
            <mxPoint x="376" y="270" as="targetPoint" />
          </mxGeometry>
        </mxCell>
        <mxCell id="HTvJXkemS3TAoMlAXdJA-55" value="" style="endArrow=classic;html=1;rounded=0;exitX=0.5;exitY=0.5;exitDx=0;exitDy=0;exitPerimeter=0;entryX=0;entryY=0.5;entryDx=0;entryDy=0;" edge="1" parent="1" source="HTvJXkemS3TAoMlAXdJA-44" target="HTvJXkemS3TAoMlAXdJA-27">
          <mxGeometry width="50" height="50" relative="1" as="geometry">
            <mxPoint x="75" y="490" as="sourcePoint" />
            <mxPoint x="384" y="450" as="targetPoint" />
          </mxGeometry>
        </mxCell>
        <mxCell id="HTvJXkemS3TAoMlAXdJA-56" value="" style="endArrow=classic;html=1;rounded=0;exitX=0.579;exitY=0.697;exitDx=0;exitDy=0;exitPerimeter=0;entryX=0;entryY=0.5;entryDx=0;entryDy=0;" edge="1" parent="1" source="HTvJXkemS3TAoMlAXdJA-44" target="HTvJXkemS3TAoMlAXdJA-36">
          <mxGeometry width="50" height="50" relative="1" as="geometry">
            <mxPoint x="75" y="490" as="sourcePoint" />
            <mxPoint x="376" y="630" as="targetPoint" />
          </mxGeometry>
        </mxCell>
        <mxCell id="HTvJXkemS3TAoMlAXdJA-63" value="include" style="endArrow=open;endSize=12;dashed=1;html=1;rounded=0;exitX=0.605;exitY=0.001;exitDx=0;exitDy=0;exitPerimeter=0;entryX=0;entryY=1;entryDx=0;entryDy=0;" edge="1" parent="1" source="HTvJXkemS3TAoMlAXdJA-12" target="HTvJXkemS3TAoMlAXdJA-19">
          <mxGeometry width="160" relative="1" as="geometry">
            <mxPoint x="310" y="270" as="sourcePoint" />
            <mxPoint x="470" y="270" as="targetPoint" />
          </mxGeometry>
        </mxCell>
        <mxCell id="HTvJXkemS3TAoMlAXdJA-64" value="include" style="endArrow=open;endSize=12;dashed=1;html=1;rounded=0;exitX=0.5;exitY=0;exitDx=0;exitDy=0;entryX=0.427;entryY=0.922;entryDx=0;entryDy=0;entryPerimeter=0;" edge="1" parent="1" source="HTvJXkemS3TAoMlAXdJA-13" target="HTvJXkemS3TAoMlAXdJA-19">
          <mxGeometry width="160" relative="1" as="geometry">
            <mxPoint x="335" y="330" as="sourcePoint" />
            <mxPoint x="388" y="284" as="targetPoint" />
          </mxGeometry>
        </mxCell>
        <mxCell id="HTvJXkemS3TAoMlAXdJA-65" value="include" style="endArrow=open;endSize=12;dashed=1;html=1;rounded=0;exitX=0.5;exitY=0;exitDx=0;exitDy=0;entryX=0.743;entryY=0.949;entryDx=0;entryDy=0;entryPerimeter=0;" edge="1" parent="1" source="HTvJXkemS3TAoMlAXdJA-11" target="HTvJXkemS3TAoMlAXdJA-19">
          <mxGeometry width="160" relative="1" as="geometry">
            <mxPoint x="345" y="340" as="sourcePoint" />
            <mxPoint x="398" y="294" as="targetPoint" />
          </mxGeometry>
        </mxCell>
        <mxCell id="HTvJXkemS3TAoMlAXdJA-66" value="include" style="endArrow=open;endSize=12;dashed=1;html=1;rounded=0;exitX=0.5;exitY=0;exitDx=0;exitDy=0;entryX=0;entryY=1;entryDx=0;entryDy=0;" edge="1" parent="1" source="HTvJXkemS3TAoMlAXdJA-21" target="HTvJXkemS3TAoMlAXdJA-23">
          <mxGeometry width="160" relative="1" as="geometry">
            <mxPoint x="355" y="350" as="sourcePoint" />
            <mxPoint x="408" y="304" as="targetPoint" />
          </mxGeometry>
        </mxCell>
        <mxCell id="HTvJXkemS3TAoMlAXdJA-67" value="include" style="endArrow=open;endSize=12;dashed=1;html=1;rounded=0;exitX=0.5;exitY=0;exitDx=0;exitDy=0;" edge="1" parent="1" source="HTvJXkemS3TAoMlAXdJA-22">
          <mxGeometry width="160" relative="1" as="geometry">
            <mxPoint x="365" y="360" as="sourcePoint" />
            <mxPoint x="414" y="460" as="targetPoint" />
          </mxGeometry>
        </mxCell>
        <mxCell id="HTvJXkemS3TAoMlAXdJA-68" value="include" style="endArrow=open;endSize=12;dashed=1;html=1;rounded=0;exitX=0.5;exitY=0;exitDx=0;exitDy=0;entryX=1;entryY=1;entryDx=0;entryDy=0;" edge="1" parent="1" source="HTvJXkemS3TAoMlAXdJA-20" target="HTvJXkemS3TAoMlAXdJA-23">
          <mxGeometry width="160" relative="1" as="geometry">
            <mxPoint x="375" y="370" as="sourcePoint" />
            <mxPoint x="428" y="324" as="targetPoint" />
          </mxGeometry>
        </mxCell>
        <mxCell id="HTvJXkemS3TAoMlAXdJA-69" value="include" style="endArrow=open;endSize=12;dashed=1;html=1;rounded=0;exitX=0.5;exitY=0;exitDx=0;exitDy=0;" edge="1" parent="1" source="HTvJXkemS3TAoMlAXdJA-25" target="HTvJXkemS3TAoMlAXdJA-27">
          <mxGeometry width="160" relative="1" as="geometry">
            <mxPoint x="385" y="380" as="sourcePoint" />
            <mxPoint x="438" y="334" as="targetPoint" />
          </mxGeometry>
        </mxCell>
        <mxCell id="HTvJXkemS3TAoMlAXdJA-70" value="extends" style="endArrow=open;endSize=12;dashed=1;html=1;rounded=0;exitX=0.5;exitY=0;exitDx=0;exitDy=0;entryX=0.651;entryY=0.896;entryDx=0;entryDy=0;entryPerimeter=0;" edge="1" parent="1" source="HTvJXkemS3TAoMlAXdJA-26" target="HTvJXkemS3TAoMlAXdJA-27">
          <mxGeometry x="0.0082" width="160" relative="1" as="geometry">
            <mxPoint x="395" y="390" as="sourcePoint" />
            <mxPoint x="448" y="344" as="targetPoint" />
            <mxPoint as="offset" />
          </mxGeometry>
        </mxCell>
        <mxCell id="HTvJXkemS3TAoMlAXdJA-71" value="include" style="endArrow=open;endSize=12;dashed=1;html=1;rounded=0;exitX=0.5;exitY=0;exitDx=0;exitDy=0;" edge="1" parent="1" source="HTvJXkemS3TAoMlAXdJA-34" target="HTvJXkemS3TAoMlAXdJA-36">
          <mxGeometry width="160" relative="1" as="geometry">
            <mxPoint x="405" y="400" as="sourcePoint" />
            <mxPoint x="458" y="354" as="targetPoint" />
          </mxGeometry>
        </mxCell>
        <mxCell id="HTvJXkemS3TAoMlAXdJA-72" value="include" style="endArrow=open;endSize=12;dashed=1;html=1;rounded=0;entryX=0.399;entryY=0.962;entryDx=0;entryDy=0;entryPerimeter=0;" edge="1" parent="1" source="HTvJXkemS3TAoMlAXdJA-35" target="HTvJXkemS3TAoMlAXdJA-36">
          <mxGeometry width="160" relative="1" as="geometry">
            <mxPoint x="415" y="410" as="sourcePoint" />
            <mxPoint x="468" y="364" as="targetPoint" />
          </mxGeometry>
        </mxCell>
        <mxCell id="HTvJXkemS3TAoMlAXdJA-73" value="extends" style="endArrow=open;endSize=12;dashed=1;html=1;rounded=0;exitX=0.5;exitY=0;exitDx=0;exitDy=0;entryX=0.675;entryY=0.909;entryDx=0;entryDy=0;entryPerimeter=0;" edge="1" parent="1" source="HTvJXkemS3TAoMlAXdJA-33" target="HTvJXkemS3TAoMlAXdJA-36">
          <mxGeometry width="160" relative="1" as="geometry">
            <mxPoint x="465" y="680" as="sourcePoint" />
            <mxPoint x="428" y="646" as="targetPoint" />
          </mxGeometry>
        </mxCell>
        <mxCell id="HTvJXkemS3TAoMlAXdJA-74" value="extends" style="endArrow=open;endSize=12;dashed=1;html=1;rounded=0;exitX=0.5;exitY=0;exitDx=0;exitDy=0;entryX=0.978;entryY=0.778;entryDx=0;entryDy=0;entryPerimeter=0;" edge="1" parent="1" source="HTvJXkemS3TAoMlAXdJA-41" target="HTvJXkemS3TAoMlAXdJA-36">
          <mxGeometry width="160" relative="1" as="geometry">
            <mxPoint x="475" y="690" as="sourcePoint" />
            <mxPoint x="438" y="656" as="targetPoint" />
          </mxGeometry>
        </mxCell>
        <mxCell id="HTvJXkemS3TAoMlAXdJA-75" value="Credit Card&amp;nbsp;&lt;div&gt;Payment System&lt;/div&gt;" style="shape=umlActor;verticalLabelPosition=bottom;verticalAlign=top;html=1;" vertex="1" parent="1">
          <mxGeometry x="630" y="490" width="30" height="60" as="geometry" />
        </mxCell>
        <mxCell id="HTvJXkemS3TAoMlAXdJA-78" value="" style="endArrow=classic;html=1;rounded=0;exitX=1;exitY=0.5;exitDx=0;exitDy=0;entryX=0.5;entryY=0.5;entryDx=0;entryDy=0;entryPerimeter=0;" edge="1" parent="1" source="HTvJXkemS3TAoMlAXdJA-20" target="HTvJXkemS3TAoMlAXdJA-75">
          <mxGeometry width="50" height="50" relative="1" as="geometry">
            <mxPoint x="530" y="500" as="sourcePoint" />
            <mxPoint x="580" y="455" as="targetPoint" />
          </mxGeometry>
        </mxCell>
        <mxCell id="HTvJXkemS3TAoMlAXdJA-79" value="Purchase Rent&lt;span style=&quot;color: rgba(0, 0, 0, 0); font-family: monospace; font-size: 0px; text-align: start; text-wrap-mode: nowrap;&quot;&gt;%3CmxGraphModel%3E%3Croot%3E%3CmxCell%20id%3D%220%22%2F%3E%3CmxCell%20id%3D%221%22%20parent%3D%220%22%2F%3E%3CmxCell%20id%3D%222%22%20value%3D%22Log%20Fuel%20Refill%22%20style%3D%22ellipse%3BwhiteSpace%3Dwrap%3Bhtml%3D1%3B%22%20vertex%3D%221%22%20parent%3D%221%22%3E%3CmxGeometry%20x%3D%22890%22%20y%3D%22200%22%20width%3D%2280%22%20height%3D%2240%22%20as%3D%22geometry%22%2F%3E%3C%2FmxCell%3E%3C%2Froot%3E%3C%2FmxGraphModel%3E&lt;/span&gt;al Cars&lt;span style=&quot;color: rgba(0, 0, 0, 0); font-family: monospace; font-size: 0px; text-align: start; text-wrap-mode: nowrap;&quot;&gt;%3CmxGraphModel%3E%3Croot%3E%3CmxCell%20id%3D%220%22%2F%3E%3CmxCell%20id%3D%221%22%20parent%3D%220%22%2F%3E%3CmxCell%20id%3D%222%22%20value%3D%22Log%20Fuel%20Refill%22%20style%3D%22ellipse%3BwhiteSpace%3Dwrap%3Bhtml%3D1%3B%22%20vertex%3D%221%22%20parent%3D%221%22%3E%3CmxGeometry%20x%3D%22890%22%20y%3D%22200%22%20width%3D%2280%22%20height%3D%2240%22%20as%3D%22geometry%22%2F%3E%3C%2FmxCell%3E%3C%2Froot%3E%3C%2FmxGraphModel%3E&lt;/span&gt;&lt;span style=&quot;color: rgba(0, 0, 0, 0); font-family: monospace; font-size: 0px; text-align: start; text-wrap-mode: nowrap;&quot;&gt;%3CmxGraphModel%3E%3Croot%3E%3CmxCell%20id%3D%220%22%2F%3E%3CmxCell%20id%3D%221%22%20parent%3D%220%22%2F%3E%3CmxCell%20id%3D%222%22%20value%3D%22Log%20Fuel%20Refill%22%20style%3D%22ellipse%3BwhiteSpace%3Dwrap%3Bhtml%3D1%3B%22%20vertex%3D%221%22%20parent%3D%221%22%3E%3CmxGeometry%20x%3D%22890%22%20y%3D%22200%22%20width%3D%2280%22%20height%3D%2240%22%20as%3D%22geometry%22%2F%3E%3C%2FmxCell%3E%3C%2Froot%3E%3C%2FmxGraphModel%3E&lt;/span&gt;" style="ellipse;whiteSpace=wrap;html=1;" vertex="1" parent="1">
          <mxGeometry x="890" y="160" width="80" height="40" as="geometry" />
        </mxCell>
        <mxCell id="HTvJXkemS3TAoMlAXdJA-80" value="Log Repair History" style="ellipse;whiteSpace=wrap;html=1;" vertex="1" parent="1">
          <mxGeometry x="884" y="390" width="80" height="40" as="geometry" />
        </mxCell>
        <mxCell id="HTvJXkemS3TAoMlAXdJA-81" value="Inspect and Log Car Condition" style="ellipse;whiteSpace=wrap;html=1;" vertex="1" parent="1">
          <mxGeometry x="884" y="460" width="80" height="40" as="geometry" />
        </mxCell>
        <mxCell id="HTvJXkemS3TAoMlAXdJA-82" value="Log and Manage Accident Cases" style="ellipse;whiteSpace=wrap;html=1;" vertex="1" parent="1">
          <mxGeometry x="884" y="600" width="80" height="40" as="geometry" />
        </mxCell>
        <mxCell id="HTvJXkemS3TAoMlAXdJA-83" value="Schedule Presentive Maintenance" style="ellipse;whiteSpace=wrap;html=1;" vertex="1" parent="1">
          <mxGeometry x="884" y="530" width="80" height="40" as="geometry" />
        </mxCell>
        <mxCell id="HTvJXkemS3TAoMlAXdJA-84" value="Maintain Car Model Profiles" style="ellipse;whiteSpace=wrap;html=1;" vertex="1" parent="1">
          <mxGeometry x="890" y="90" width="80" height="40" as="geometry" />
        </mxCell>
        <mxCell id="HTvJXkemS3TAoMlAXdJA-85" value="Discard Rental Cars" style="ellipse;whiteSpace=wrap;html=1;" vertex="1" parent="1">
          <mxGeometry x="884" y="675" width="80" height="40" as="geometry" />
        </mxCell>
        <mxCell id="HTvJXkemS3TAoMlAXdJA-87" value="" style="endArrow=classic;html=1;rounded=0;exitX=0.5;exitY=0;exitDx=0;exitDy=0;exitPerimeter=0;entryX=0;entryY=0.5;entryDx=0;entryDy=0;" edge="1" parent="1" source="HTvJXkemS3TAoMlAXdJA-45" target="HTvJXkemS3TAoMlAXdJA-80">
          <mxGeometry width="50" height="50" relative="1" as="geometry">
            <mxPoint x="774" y="505" as="sourcePoint" />
            <mxPoint x="824" y="455" as="targetPoint" />
          </mxGeometry>
        </mxCell>
        <mxCell id="HTvJXkemS3TAoMlAXdJA-88" value="" style="endArrow=classic;html=1;rounded=0;exitX=0.625;exitY=0.325;exitDx=0;exitDy=0;exitPerimeter=0;entryX=0;entryY=0.5;entryDx=0;entryDy=0;" edge="1" parent="1" source="HTvJXkemS3TAoMlAXdJA-45" target="HTvJXkemS3TAoMlAXdJA-81">
          <mxGeometry width="50" height="50" relative="1" as="geometry">
            <mxPoint x="759" y="605" as="sourcePoint" />
            <mxPoint x="894" y="420" as="targetPoint" />
          </mxGeometry>
        </mxCell>
        <mxCell id="HTvJXkemS3TAoMlAXdJA-89" value="" style="endArrow=classic;html=1;rounded=0;exitX=0.5;exitY=0.5;exitDx=0;exitDy=0;exitPerimeter=0;entryX=0;entryY=0.5;entryDx=0;entryDy=0;" edge="1" parent="1" source="HTvJXkemS3TAoMlAXdJA-45" target="HTvJXkemS3TAoMlAXdJA-83">
          <mxGeometry width="50" height="50" relative="1" as="geometry">
            <mxPoint x="763" y="625" as="sourcePoint" />
            <mxPoint x="894" y="490" as="targetPoint" />
          </mxGeometry>
        </mxCell>
        <mxCell id="HTvJXkemS3TAoMlAXdJA-91" value="" style="endArrow=classic;html=1;rounded=0;exitX=0.523;exitY=0.615;exitDx=0;exitDy=0;exitPerimeter=0;entryX=0;entryY=0.5;entryDx=0;entryDy=0;" edge="1" parent="1" source="HTvJXkemS3TAoMlAXdJA-45" target="HTvJXkemS3TAoMlAXdJA-82">
          <mxGeometry width="50" height="50" relative="1" as="geometry">
            <mxPoint x="759" y="635" as="sourcePoint" />
            <mxPoint x="894" y="560" as="targetPoint" />
          </mxGeometry>
        </mxCell>
        <mxCell id="HTvJXkemS3TAoMlAXdJA-92" value="" style="endArrow=classic;html=1;rounded=0;exitX=0.768;exitY=0.773;exitDx=0;exitDy=0;exitPerimeter=0;entryX=-0.021;entryY=0.343;entryDx=0;entryDy=0;entryPerimeter=0;" edge="1" parent="1" source="HTvJXkemS3TAoMlAXdJA-45" target="HTvJXkemS3TAoMlAXdJA-85">
          <mxGeometry width="50" height="50" relative="1" as="geometry">
            <mxPoint x="760" y="642" as="sourcePoint" />
            <mxPoint x="894" y="630" as="targetPoint" />
          </mxGeometry>
        </mxCell>
        <mxCell id="HTvJXkemS3TAoMlAXdJA-93" value="Headquarter Staff" style="shape=umlActor;verticalLabelPosition=bottom;verticalAlign=top;html=1;" vertex="1" parent="1">
          <mxGeometry x="700" y="140" width="30" height="60" as="geometry" />
        </mxCell>
        <mxCell id="HTvJXkemS3TAoMlAXdJA-98" value="Track Rental Car Location" style="ellipse;whiteSpace=wrap;html=1;" vertex="1" parent="1">
          <mxGeometry x="884" y="740" width="80" height="40" as="geometry" />
        </mxCell>
        <mxCell id="HTvJXkemS3TAoMlAXdJA-99" value="Replace Rental Car" style="ellipse;whiteSpace=wrap;html=1;" vertex="1" parent="1">
          <mxGeometry x="884" y="795" width="80" height="40" as="geometry" />
        </mxCell>
        <mxCell id="HTvJXkemS3TAoMlAXdJA-100" value="Process Car Accident" style="ellipse;whiteSpace=wrap;html=1;" vertex="1" parent="1">
          <mxGeometry x="884" y="855" width="80" height="40" as="geometry" />
        </mxCell>
        <mxCell id="HTvJXkemS3TAoMlAXdJA-101" value="File Insurance Claim" style="ellipse;whiteSpace=wrap;html=1;" vertex="1" parent="1">
          <mxGeometry x="1014" y="815" width="80" height="40" as="geometry" />
        </mxCell>
        <mxCell id="HTvJXkemS3TAoMlAXdJA-102" value="Charge Customer for Damage" style="ellipse;whiteSpace=wrap;html=1;" vertex="1" parent="1">
          <mxGeometry x="1014" y="885" width="80" height="40" as="geometry" />
        </mxCell>
        <mxCell id="HTvJXkemS3TAoMlAXdJA-103" value="include" style="endArrow=open;endSize=12;dashed=1;html=1;rounded=0;exitX=0;exitY=0.5;exitDx=0;exitDy=0;entryX=0.939;entryY=0.212;entryDx=0;entryDy=0;entryPerimeter=0;" edge="1" parent="1" source="HTvJXkemS3TAoMlAXdJA-101" target="HTvJXkemS3TAoMlAXdJA-100">
          <mxGeometry x="0.0082" width="160" relative="1" as="geometry">
            <mxPoint x="964" y="800" as="sourcePoint" />
            <mxPoint x="1019" y="740" as="targetPoint" />
            <mxPoint as="offset" />
          </mxGeometry>
        </mxCell>
        <mxCell id="HTvJXkemS3TAoMlAXdJA-104" value="include" style="endArrow=open;endSize=12;dashed=1;html=1;rounded=0;exitX=0;exitY=0.5;exitDx=0;exitDy=0;entryX=0.939;entryY=0.764;entryDx=0;entryDy=0;entryPerimeter=0;" edge="1" parent="1" source="HTvJXkemS3TAoMlAXdJA-102" target="HTvJXkemS3TAoMlAXdJA-100">
          <mxGeometry x="0.0082" width="160" relative="1" as="geometry">
            <mxPoint x="1024" y="845" as="sourcePoint" />
            <mxPoint x="969" y="873" as="targetPoint" />
            <mxPoint as="offset" />
          </mxGeometry>
        </mxCell>
        <mxCell id="HTvJXkemS3TAoMlAXdJA-105" value="" style="endArrow=classic;html=1;rounded=0;exitX=0.909;exitY=0.861;exitDx=0;exitDy=0;exitPerimeter=0;entryX=0;entryY=0.5;entryDx=0;entryDy=0;" edge="1" parent="1" source="HTvJXkemS3TAoMlAXdJA-45" target="HTvJXkemS3TAoMlAXdJA-98">
          <mxGeometry width="50" height="50" relative="1" as="geometry">
            <mxPoint x="767" y="651" as="sourcePoint" />
            <mxPoint x="892" y="699" as="targetPoint" />
          </mxGeometry>
        </mxCell>
        <mxCell id="HTvJXkemS3TAoMlAXdJA-106" value="" style="endArrow=classic;html=1;rounded=0;exitX=0.382;exitY=0.703;exitDx=0;exitDy=0;exitPerimeter=0;entryX=0;entryY=0.5;entryDx=0;entryDy=0;" edge="1" parent="1" source="HTvJXkemS3TAoMlAXdJA-45" target="HTvJXkemS3TAoMlAXdJA-99">
          <mxGeometry width="50" height="50" relative="1" as="geometry">
            <mxPoint x="771" y="657" as="sourcePoint" />
            <mxPoint x="894" y="770" as="targetPoint" />
          </mxGeometry>
        </mxCell>
        <mxCell id="HTvJXkemS3TAoMlAXdJA-107" value="" style="endArrow=classic;html=1;rounded=0;entryX=0;entryY=0.5;entryDx=0;entryDy=0;" edge="1" parent="1" source="HTvJXkemS3TAoMlAXdJA-45" target="HTvJXkemS3TAoMlAXdJA-100">
          <mxGeometry width="50" height="50" relative="1" as="geometry">
            <mxPoint x="781" y="667" as="sourcePoint" />
            <mxPoint x="904" y="780" as="targetPoint" />
          </mxGeometry>
        </mxCell>
        <mxCell id="HTvJXkemS3TAoMlAXdJA-108" value="" style="endArrow=classic;html=1;rounded=0;entryX=0;entryY=0.5;entryDx=0;entryDy=0;exitX=0.5;exitY=0.5;exitDx=0;exitDy=0;exitPerimeter=0;" edge="1" parent="1" source="HTvJXkemS3TAoMlAXdJA-93" target="HTvJXkemS3TAoMlAXdJA-84">
          <mxGeometry width="50" height="50" relative="1" as="geometry">
            <mxPoint x="770" y="-182" as="sourcePoint" />
            <mxPoint x="890" y="40" as="targetPoint" />
          </mxGeometry>
        </mxCell>
        <mxCell id="HTvJXkemS3TAoMlAXdJA-109" value="" style="endArrow=classic;html=1;rounded=0;entryX=0;entryY=0.5;entryDx=0;entryDy=0;exitX=0.646;exitY=0.825;exitDx=0;exitDy=0;exitPerimeter=0;" edge="1" parent="1" source="HTvJXkemS3TAoMlAXdJA-93" target="HTvJXkemS3TAoMlAXdJA-79">
          <mxGeometry width="50" height="50" relative="1" as="geometry">
            <mxPoint x="745" y="70" as="sourcePoint" />
            <mxPoint x="900" y="120" as="targetPoint" />
          </mxGeometry>
        </mxCell>
        <mxCell id="HTvJXkemS3TAoMlAXdJA-110" value="Analyze Rental Trends" style="ellipse;whiteSpace=wrap;html=1;" vertex="1" parent="1">
          <mxGeometry x="890" y="230" width="80" height="40" as="geometry" />
        </mxCell>
        <mxCell id="HTvJXkemS3TAoMlAXdJA-111" value="Adjust Rental Pricing" style="ellipse;whiteSpace=wrap;html=1;" vertex="1" parent="1">
          <mxGeometry x="1040" y="230" width="80" height="40" as="geometry" />
        </mxCell>
        <mxCell id="HTvJXkemS3TAoMlAXdJA-112" value="" style="endArrow=classic;html=1;rounded=0;entryX=0;entryY=0.5;entryDx=0;entryDy=0;exitX=1;exitY=1;exitDx=0;exitDy=0;exitPerimeter=0;" edge="1" parent="1" source="HTvJXkemS3TAoMlAXdJA-93" target="HTvJXkemS3TAoMlAXdJA-110">
          <mxGeometry width="50" height="50" relative="1" as="geometry">
            <mxPoint x="749" y="90" as="sourcePoint" />
            <mxPoint x="900" y="190" as="targetPoint" />
          </mxGeometry>
        </mxCell>
        <mxCell id="HTvJXkemS3TAoMlAXdJA-114" value="" style="endArrow=classic;html=1;rounded=0;entryX=1;entryY=0.5;entryDx=0;entryDy=0;exitX=0.5;exitY=0;exitDx=0;exitDy=0;exitPerimeter=0;" edge="1" parent="1" source="HTvJXkemS3TAoMlAXdJA-93" target="HTvJXkemS3TAoMlAXdJA-1">
          <mxGeometry width="50" height="50" relative="1" as="geometry">
            <mxPoint x="535" y="120" as="sourcePoint" />
            <mxPoint x="585" y="70" as="targetPoint" />
          </mxGeometry>
        </mxCell>
        <mxCell id="HTvJXkemS3TAoMlAXdJA-115" value="" style="endArrow=classic;html=1;rounded=0;entryX=1;entryY=0.5;entryDx=0;entryDy=0;exitX=0;exitY=0.3333333333333333;exitDx=0;exitDy=0;exitPerimeter=0;" edge="1" parent="1" source="HTvJXkemS3TAoMlAXdJA-93" target="HTvJXkemS3TAoMlAXdJA-2">
          <mxGeometry width="50" height="50" relative="1" as="geometry">
            <mxPoint x="725" y="150" as="sourcePoint" />
            <mxPoint x="456" y="60" as="targetPoint" />
          </mxGeometry>
        </mxCell>
        <mxCell id="HTvJXkemS3TAoMlAXdJA-116" value="" style="endArrow=classic;html=1;rounded=0;entryX=1;entryY=0.5;entryDx=0;entryDy=0;exitX=0.5;exitY=0.5;exitDx=0;exitDy=0;exitPerimeter=0;" edge="1" parent="1" source="HTvJXkemS3TAoMlAXdJA-93" target="HTvJXkemS3TAoMlAXdJA-19">
          <mxGeometry width="50" height="50" relative="1" as="geometry">
            <mxPoint x="735" y="160" as="sourcePoint" />
            <mxPoint x="466" y="70" as="targetPoint" />
          </mxGeometry>
        </mxCell>
        <mxCell id="HTvJXkemS3TAoMlAXdJA-117" value="" style="endArrow=classic;html=1;rounded=0;entryX=1;entryY=0.5;entryDx=0;entryDy=0;exitX=0.333;exitY=0.667;exitDx=0;exitDy=0;exitPerimeter=0;" edge="1" parent="1" source="HTvJXkemS3TAoMlAXdJA-93" target="HTvJXkemS3TAoMlAXdJA-23">
          <mxGeometry width="50" height="50" relative="1" as="geometry">
            <mxPoint x="725" y="180" as="sourcePoint" />
            <mxPoint x="456" y="270" as="targetPoint" />
          </mxGeometry>
        </mxCell>
        <mxCell id="HTvJXkemS3TAoMlAXdJA-118" value="" style="endArrow=classic;html=1;rounded=0;entryX=1;entryY=0.5;entryDx=0;entryDy=0;exitX=0;exitY=1;exitDx=0;exitDy=0;exitPerimeter=0;" edge="1" parent="1" source="HTvJXkemS3TAoMlAXdJA-93" target="HTvJXkemS3TAoMlAXdJA-27">
          <mxGeometry width="50" height="50" relative="1" as="geometry">
            <mxPoint x="720" y="190" as="sourcePoint" />
            <mxPoint x="464" y="450" as="targetPoint" />
          </mxGeometry>
        </mxCell>
        <mxCell id="HTvJXkemS3TAoMlAXdJA-119" value="" style="endArrow=classic;html=1;rounded=0;entryX=1;entryY=0.5;entryDx=0;entryDy=0;exitX=0;exitY=1;exitDx=0;exitDy=0;exitPerimeter=0;" edge="1" parent="1" target="HTvJXkemS3TAoMlAXdJA-36">
          <mxGeometry width="50" height="50" relative="1" as="geometry">
            <mxPoint x="710" y="210" as="sourcePoint" />
            <mxPoint x="456" y="630" as="targetPoint" />
          </mxGeometry>
        </mxCell>
        <mxCell id="HTvJXkemS3TAoMlAXdJA-120" value="include" style="endArrow=open;endSize=12;dashed=1;html=1;rounded=0;exitX=0;exitY=0.5;exitDx=0;exitDy=0;entryX=1;entryY=0.5;entryDx=0;entryDy=0;" edge="1" parent="1" source="HTvJXkemS3TAoMlAXdJA-111" target="HTvJXkemS3TAoMlAXdJA-110">
          <mxGeometry x="0.0082" width="160" relative="1" as="geometry">
            <mxPoint x="1025" y="252" as="sourcePoint" />
            <mxPoint x="970" y="280" as="targetPoint" />
            <mxPoint as="offset" />
          </mxGeometry>
        </mxCell>
      </root>
    </mxGraphModel>
  </diagram>
</mxfile>
